<svg xmlns="http://www.w3.org/2000/svg" xmlns:xlink="http://www.w3.org/1999/xlink" version="1.1" x="0px" y="0px" viewBox="0 0 100 125" style="enable-background:new 0 0 100 100;" xml:space="preserve"><path d="M179.8,37.7v0.4V37.7z"/><path d="M42.2,50.1h31.6c0.9,0,1.9-0.7,2-1.6l5.8-20.4c0.4-1.5-0.7-2.6-2-2.6H30.8l-0.8-3C29.7,21,28.3,20,27,20h-5.3  c-1.7,0-3.3,1.3-3.4,3c-0.1,1.9,1.5,3.4,3.2,3.4h3l10.1,34c0.4,1.5,1.6,2.4,3,2.4h37.3c1.7,0,3.3-1.3,3.4-3c0.1-1.9-1.5-3.4-3.2-3.4  H42.4c-1.5,0-2.6-0.9-3-2.2V54C38.7,52.1,40.2,50.1,42.2,50.1z M42.9,69.4c2.9,0,5.3,2.4,5.3,5.3S45.8,80,42.9,80  c-2.9,0-5.3-2.4-5.3-5.3S40,69.4,42.9,69.4z M68.7,69.4c2.9,0,5.3,2.4,5.3,5.3S71.6,80,68.7,80c-2.9,0-5.3-2.4-5.3-5.3  S65.8,69.4,68.7,69.4z"/></svg>