<svg xmlns="http://www.w3.org/2000/svg" data-name="Layer 1" viewBox="0 0 48 60" x="0px" y="0px"><defs><style>
      .cls-1 {
        stroke-width: 0px;
      }
    </style></defs><path class="cls-1" d="M42.513,24.198L24.101,5.786c-1.151-1.152-2.683-1.786-4.312-1.786H7.295c-1.817,0-3.295,1.478-3.295,3.295v12.494c0,1.629.634,3.16,1.786,4.311l18.412,18.413c.99.99,2.29,1.485,3.59,1.485s2.601-.495,3.59-1.485l11.134-11.134c1.98-1.979,1.98-5.201,0-7.181ZM13.5,17c-1.933,0-3.5-1.567-3.5-3.5s1.567-3.5,3.5-3.5,3.5,1.567,3.5,3.5-1.567,3.5-3.5,3.5Z"/></svg>